<svg width="41" height="37" viewBox="0 0 41 37" fill="none" xmlns="http://www.w3.org/2000/svg">
<g clip-path="url(#clip0_6_34)">
<path fill-rule="evenodd" clip-rule="evenodd" d="M14.1672 19.5899C13.847 19.3008 13.667 18.9088 13.667 18.5C13.667 18.0912 13.847 17.6991 14.1672 17.41L23.8313 8.68882C23.9888 8.54158 24.1774 8.42413 24.3858 8.34333C24.5942 8.26254 24.8184 8.22001 25.0452 8.21823C25.272 8.21645 25.497 8.25546 25.7069 8.33297C25.9169 8.41049 26.1076 8.52496 26.268 8.66971C26.4284 8.81447 26.5553 8.9866 26.6412 9.17606C26.7271 9.36553 26.7703 9.56853 26.7683 9.77323C26.7663 9.97793 26.7192 10.1802 26.6297 10.3683C26.5401 10.5564 26.41 10.7265 26.2468 10.8687L17.7906 18.5L26.2468 26.1312C26.558 26.422 26.7302 26.8114 26.7263 27.2157C26.7224 27.6199 26.5428 28.0065 26.226 28.2924C25.9093 28.5782 25.4808 28.7404 25.0329 28.7439C24.585 28.7474 24.1535 28.592 23.8313 28.3112L14.1672 19.5899Z" fill="black"/>
</g>
<defs>
<clipPath id="clip0_6_34">
<rect width="41" height="37" fill="white"/>
</clipPath>
</defs>
</svg>
