<svg width="27" height="26" viewBox="0 0 27 26" fill="none" xmlns="http://www.w3.org/2000/svg">
<path d="M20.8533 12.0389H5.54665C4.33899 12.0389 3.35999 12.9971 3.35999 14.179V21.6693C3.35999 22.8512 4.33899 23.8093 5.54665 23.8093H20.8533C22.061 23.8093 23.04 22.8512 23.04 21.6693V14.179C23.04 12.9971 22.061 12.0389 20.8533 12.0389Z" stroke="black" stroke-opacity="0.3" stroke-width="2" stroke-linecap="round" stroke-linejoin="round"/>
<path d="M7.73328 12.0389V7.75875C7.73328 6.33979 8.30923 4.97895 9.33443 3.97559C10.3596 2.97224 11.7501 2.40856 13.1999 2.40856C14.6498 2.40856 16.0403 2.97224 17.0655 3.97559C18.0907 4.97895 18.6666 6.33979 18.6666 7.75875V12.0389" stroke="black" stroke-opacity="0.3" stroke-width="2" stroke-linecap="round" stroke-linejoin="round"/>
</svg>
