<svg width="23" height="25" viewBox="0 0 23 25" fill="none" xmlns="http://www.w3.org/2000/svg">
<path d="M3.91667 21.9271H5.25833L13.524 12.9427L12.1823 11.4844L3.91667 20.4688V21.9271ZM17.6208 11.4323L13.5479 7.05729L14.8896 5.59896C15.2569 5.19965 15.7083 5 16.2437 5C16.7791 5 17.2302 5.19965 17.5969 5.59896L18.9385 7.05729C19.3059 7.4566 19.4976 7.93854 19.5135 8.50312C19.5295 9.06771 19.3538 9.54931 18.9865 9.94792L17.6208 11.4323ZM16.2313 12.9687L6.07292 24.0104H2V19.5833L12.1583 8.54167L16.2313 12.9687ZM12.8531 12.2135L12.1823 11.4844L13.524 12.9427L12.8531 12.2135Z" fill="#3C377E"/>
</svg>
