<svg width="23" height="23" viewBox="0 0 23 23" fill="none" xmlns="http://www.w3.org/2000/svg">
<path fill-rule="evenodd" clip-rule="evenodd" d="M19.608 11.5943C19.608 10.988 19.5536 10.4051 19.4526 9.84546H11.4V13.1528H16.0015C15.8033 14.2215 15.2009 15.127 14.2954 15.7333V17.8786H17.0586C18.6753 16.3901 19.608 14.1982 19.608 11.5943Z" fill="#4285F4"/>
<path fill-rule="evenodd" clip-rule="evenodd" d="M11.4 19.95C13.7085 19.95 15.6439 19.1844 17.0585 17.8786L14.2953 15.7333C13.5297 16.2463 12.5504 16.5494 11.4 16.5494C9.1731 16.5494 7.28822 15.0454 6.61588 13.0245H3.7594V15.2397C5.16626 18.034 8.05772 19.95 11.4 19.95Z" fill="#34A853"/>
<path fill-rule="evenodd" clip-rule="evenodd" d="M6.61586 13.0245C6.44486 12.5115 6.3477 11.9635 6.3477 11.4C6.3477 10.8365 6.44486 10.2885 6.61586 9.7755V7.56027H3.75938C3.18032 8.71452 2.84998 10.0203 2.84998 11.4C2.84998 12.7797 3.18032 14.0855 3.75938 15.2397L6.61586 13.0245Z" fill="#FBBC05"/>
<path fill-rule="evenodd" clip-rule="evenodd" d="M11.4 6.25057C12.6553 6.25057 13.7823 6.68196 14.6684 7.52919L17.1207 5.07689C15.64 3.69723 13.7046 2.85001 11.4 2.85001C8.05772 2.85001 5.16626 4.76598 3.7594 7.56028L6.61588 9.77551C7.28822 7.7546 9.1731 6.25057 11.4 6.25057Z" fill="#EA4335"/>
</svg>
